PathFileType	4	(X/Y/Z)	 s10c0203.trc
DataRate	CameraRate	NumFrames	NumMarkers	Units	OrigDataRate	OrigDataStartFrame	OrigNumFrames
200	200	4	49	mm	200	1251	2000
Frame#	Time	racr			lacr			c7			jug			rlel			rdr			llel			ldr			s2			lic			ric			lasi			rasi			rpsi			lpsi			rgt			lgt			rth1			rth2			rth3			rth4			rlfc			rmfc			rsh1			rsh2			rsh3			rsh4			rlmal			rmmal			rcal			rtoe			rmt5			lth1			lth2			lth4			lth3			llfc			lmfc			llmal			lcal			lmt5			lsh1			lsh2			lsh3			lsh4			ltoe			SBIKE			LBIKE			RBIKE			
		X1	Y1	Z1	X2	Y2	Z2	X3	Y3	Z3	X4	Y4	Z4	X5	Y5	Z5	X6	Y6	Z6	X7	Y7	Z7	X8	Y8	Z8	X9	Y9	Z9	X10	Y10	Z10	X11	Y11	Z11	X12	Y12	Z12	X13	Y13	Z13	X14	Y14	Z14	X15	Y15	Z15	X16	Y16	Z16	X17	Y17	Z17	X18	Y18	Z18	X19	Y19	Z19	X20	Y20	Z20	X21	Y21	Z21	X22	Y22	Z22	X23	Y23	Z23	X24	Y24	Z24	X25	Y25	Z25	X26	Y26	Z26	X27	Y27	Z27	X28	Y28	Z28	X29	Y29	Z29	X30	Y30	Z30	X31	Y31	Z31	X32	Y32	Z32	X33	Y33	Z33	X34	Y34	Z34	X35	Y35	Z35	X36	Y36	Z36	X37	Y37	Z37	X38	Y38	Z38	X39	Y39	Z39	X40	Y40	Z40	X41	Y41	Z41	X42	Y42	Z42	X43	Y43	Z43	X44	Y44	Z44	X45	Y45	Z45	X46	Y46	Z46	X47	Y47	Z47	X48	Y48	Z48	X49	Y49	Z49	
1251	6.2550	407.374316	1254.471008	-16.765611	439.011892	1276.781055	-329.824241	381.660261	1325.093666	-186.630784	387.166744	1175.968981	-181.370143	411.082734	1006.184288	82.126454	596.773787	912.555064	13.445427	467.838248	1040.864873	-480.369567	626.365150	908.968686	-396.704506	-114.828278	1085.240041	-240.492889	62.673838	1100.756838	-373.307337	36.178011	1117.273476	-89.280615	91.240669	1020.044252	-334.713138	59.856540	1041.347474	-81.438685	-85.631630	1147.295906	-187.463243	-63.232008	1149.700302	-295.964629	-55.011542	996.243725	-39.154748	-14.783218	963.912885	-415.348721	47.208778	877.631689	-6.398500	129.093973	842.111791	-12.965714	179.490148	773.680415	-22.935393	150.843696	872.278598	-14.950962	267.924564	710.377367	-31.533143	274.787680	703.878030	-146.670797	220.895327	600.807641	-7.367828	237.335729	513.484302	-17.120925	208.521610	432.640153	-25.337799	270.721960	514.205103	-36.856425	199.670341	328.158691	-42.211818	227.132670	350.556328	-120.978726	153.634306	300.878078	-93.015739	394.863464	312.643052	-78.792862	316.129085	270.991167	-19.420392	85.493852	874.931286	-416.390928	165.811226	850.084580	-394.191692	182.986348	880.701095	-383.380880	224.875374	785.390599	-379.992145	302.792651	717.394496	-354.549487	284.565782	707.682616	-233.787222	-7.453975	504.234427	-380.634868	-72.436529	508.002129	-338.844559	32.567717	363.759542	-397.587601	199.596577	663.620278	-395.729861	150.367540	590.071116	-383.986766	69.789273	552.320189	-387.512879	168.887987	570.867453	-356.587867	108.474806	342.697554	-342.886803	-204.440579	831.408976	-224.438984	-78.147535	81.824559	-423.700320	-102.651594	80.602082	-24.423693	
1252	6.2600	411.132227	1254.704892	-20.483842	435.939175	1278.776148	-334.776914	380.862604	1326.555044	-190.339280	387.517900	1177.626351	-185.059618	412.467055	1007.084861	82.301303	596.960801	912.516809	13.412911	466.989288	1040.985701	-480.160757	626.281760	909.114792	-396.591580	-114.935686	1083.181990	-237.725458	61.074354	1101.245635	-371.449122	37.204597	1115.719448	-86.256057	90.972557	1020.010488	-332.860401	59.882090	1039.102094	-78.730022	-86.125300	1145.020993	-183.832681	-65.411272	1148.648053	-293.807600	-55.853137	991.461470	-36.771444	-12.882559	963.396212	-414.032760	44.994438	870.968678	-5.225471	125.931061	834.291024	-12.735128	174.849185	765.076862	-24.194477	148.449104	864.031099	-14.018616	262.073193	700.714630	-32.981595	268.996995	694.863866	-147.577491	214.589294	591.585049	-8.203566	231.811462	504.363774	-17.521566	203.839907	423.139627	-25.942025	265.513362	505.256467	-36.841812	196.615645	318.580293	-42.600864	224.683055	340.762609	-121.282930	150.672989	292.022050	-93.442779	392.113684	301.847064	-78.092939	312.909029	260.635074	-19.725652	89.928278	877.407186	-414.414948	170.736557	855.490615	-391.193732	186.735838	886.933361	-380.305732	232.314634	792.890281	-378.168087	309.966058	726.843415	-352.296658	291.580453	714.983086	-231.547046	-2.067545	514.916352	-380.047801	-67.046185	519.615509	-338.694251	36.185380	373.727111	-397.470787	206.201232	672.654747	-394.158861	156.381836	599.448266	-383.011216	75.428273	562.410477	-386.656143	174.661243	579.950099	-355.354735	111.902612	351.874409	-342.621128	-204.432263	831.395182	-224.357924	-78.140145	81.798673	-423.693441	-102.641061	80.588945	-24.426903	
1253	6.2650	414.802010	1254.842244	-24.345092	432.783631	1280.665478	-339.849199	380.202179	1327.901161	-193.205302	387.885335	1179.376156	-188.959553	413.809219	1008.014414	82.482675	597.135494	912.436428	13.370154	466.112536	1041.083172	-480.025253	626.235508	909.266024	-396.636793	-115.060341	1081.292259	-234.453855	59.199033	1101.642913	-369.415216	38.278694	1114.025482	-82.966477	90.689058	1020.023667	-331.071455	60.121562	1036.811550	-75.894577	-86.630072	1142.578636	-179.653121	-67.078473	1147.581638	-290.301965	-56.267090	987.100582	-34.014393	-10.646425	963.067359	-412.906023	42.851647	865.308317	-4.157826	122.868157	827.113178	-12.684056	169.981403	756.824751	-25.267665	145.952700	856.259293	-13.067867	256.033284	691.389470	-34.254642	261.852090	685.764744	-148.924644	208.142916	582.426524	-8.939334	226.094133	495.232450	-18.056726	198.719463	413.909136	-26.726765	259.938591	496.610833	-36.980785	193.088647	309.175793	-43.161574	221.755986	330.949433	-121.851956	147.230353	283.313786	-93.975020	388.800639	290.735258	-78.662525	309.120554	250.521424	-19.989202	94.865731	881.043628	-412.576428	175.534992	861.539382	-388.167108	190.313686	893.527487	-376.745568	238.911800	800.941035	-375.679690	317.218232	736.996948	-349.894257	298.126691	722.034581	-229.447354	3.872804	525.396751	-379.292383	-60.899518	531.246654	-338.952857	40.612614	383.625349	-397.268753	212.187784	681.562481	-391.808830	162.561150	609.069991	-381.528305	81.495002	572.385720	-385.689095	180.744380	589.317454	-354.184300	115.998767	360.887833	-342.299363	-204.433727	831.395712	-224.257279	-78.145164	81.822637	-423.676401	-102.639006	80.578397	-24.420630	
1254	6.2700	418.334352	1254.966057	-28.341275	429.432216	1282.479615	-344.988235	379.271924	1328.980900	-196.414988	388.145535	1181.268164	-193.480901	415.171106	1009.061283	82.623186	597.283223	912.362299	13.369609	465.258044	1041.084262	-479.870532	626.180263	909.316773	-396.640983	-115.057336	1079.507364	-230.889873	57.292131	1102.273857	-367.558506	39.465737	1112.397748	-79.601458	90.494649	1020.241700	-329.437365	60.480126	1034.626946	-73.301632	-85.519054	1139.499734	-176.830203	-67.985130	1146.586875	-286.179980	-56.292900	983.612035	-31.314471	-9.086980	962.948363	-411.314182	40.781259	860.273689	-3.224263	119.961388	820.856927	-12.380959	165.053792	749.244852	-26.070145	143.540926	848.910881	-12.497659	249.601735	682.199612	-35.340137	257.033990	677.021299	-149.454037	201.746250	573.495023	-9.667996	220.194016	486.498661	-18.691224	193.284437	404.861001	-27.509322	254.069765	487.942931	-37.505578	189.115521	300.180980	-43.943428	218.144285	321.572063	-122.606402	144.223294	273.638389	-95.622897	384.854990	280.197004	-79.116966	304.719611	240.661474	-20.405220	98.789356	885.007397	-409.727867	180.036977	868.458918	-385.094158	193.365636	900.480134	-372.335059	245.812624	810.143991	-373.725790	324.419764	747.670309	-347.209099	303.967256	729.693958	-227.467792	10.452547	535.539656	-378.514619	-54.197573	541.478589	-337.995185	45.655498	393.337311	-397.019979	219.069238	691.045715	-390.002122	169.219609	618.746140	-380.126056	88.003822	582.347516	-384.711924	187.285855	598.735421	-352.797208	120.732664	369.598199	-342.057474	-204.437856	831.375994	-224.138244	-78.162733	81.795500	-423.696108	-102.644921	80.554830	-24.393874	
